<svg width="42" height="26" viewBox="0 0 42 26" fill="none" xmlns="http://www.w3.org/2000/svg">
<path d="M2.57143 0.857147H14.5714C15.9916 0.857147 17.1429 2.00841 17.1429 3.42857V7.71429H15.4286V4.28572C15.4286 3.33894 14.6611 2.57143 13.7143 2.57143H3.42857C2.4818 2.57143 1.71429 3.33894 1.71429 4.28572V18H15.4286V14.5714H17.1429V21.4285C17.1429 22.8487 15.9916 24 14.5714 24H2.57143C1.15127 24 0 22.8487 0 21.4285V3.42858C0 2.00841 1.15127 0.857147 2.57143 0.857147Z" fill="white"/>
<path d="M7.62631 11.0293L7.75827 10.9853C8.2861 10.8094 8.85676 10.8094 9.38458 10.9853L9.51654 11.0293C10.4878 11.3531 11.1429 12.262 11.1429 13.2857H6C6 12.262 6.6551 11.3531 7.62631 11.0293Z" fill="white"/>
<path d="M7.28571 9C7.28571 9.71008 7.86135 10.2857 8.57143 10.2857C9.28151 10.2857 9.85714 9.71008 9.85714 9C9.85714 8.28992 9.28151 7.71429 8.57143 7.71429C7.86135 7.71429 7.28571 8.28992 7.28571 9Z" fill="white"/>
<path d="M20.0583 6.55947C20.0583 5.85498 20.1894 5.2365 20.4516 4.70404C20.7219 4.17157 21.0864 3.76199 21.5451 3.47527C22.0039 3.18856 22.5159 3.04521 23.0811 3.04521C23.5644 3.04521 23.9863 3.14351 24.3467 3.34011C24.7154 3.53671 24.998 3.79475 25.1946 4.11423V3.14351H27.2958V10H25.1946V9.02928C24.9898 9.34876 24.7031 9.6068 24.3344 9.8034C23.974 10 23.5521 10.0983 23.0688 10.0983C22.5118 10.0983 22.0039 9.95495 21.5451 9.66823C21.0864 9.37333 20.7219 8.95965 20.4516 8.42718C20.1894 7.88653 20.0583 7.26396 20.0583 6.55947ZM25.1946 6.57175C25.1946 6.04748 25.0471 5.6338 24.7522 5.3307C24.4655 5.02761 24.1133 4.87606 23.6955 4.87606C23.2777 4.87606 22.9214 5.02761 22.6265 5.3307C22.3397 5.62561 22.1964 6.03519 22.1964 6.55947C22.1964 7.08374 22.3397 7.50152 22.6265 7.8128C22.9214 8.1159 23.2777 8.26745 23.6955 8.26745C24.1133 8.26745 24.4655 8.1159 24.7522 7.8128C25.0471 7.50971 25.1946 7.09603 25.1946 6.57175ZM30.9171 4.28626C31.1628 3.90944 31.47 3.61453 31.8386 3.40155C32.2073 3.18037 32.6168 3.06978 33.0674 3.06978V5.29384H32.4899C31.9656 5.29384 31.5724 5.40853 31.3103 5.6379C31.0481 5.85907 30.9171 6.25228 30.9171 6.81751V10H28.8159V3.14351H30.9171V4.28626ZM33.6539 6.55947C33.6539 5.85498 33.785 5.2365 34.0471 4.70404C34.3175 4.17157 34.682 3.76199 35.1407 3.47527C35.5995 3.18856 36.1114 3.04521 36.6767 3.04521C37.1272 3.04521 37.5368 3.13941 37.9054 3.32782C38.2823 3.51623 38.5772 3.77018 38.7901 4.08965V0.907162H40.8913V10H38.7901V9.01699C38.5935 9.34466 38.3109 9.6068 37.9423 9.8034C37.5819 10 37.16 10.0983 36.6767 10.0983C36.1114 10.0983 35.5995 9.95495 35.1407 9.66823C34.682 9.37333 34.3175 8.95965 34.0471 8.42718C33.785 7.88653 33.6539 7.26396 33.6539 6.55947ZM38.7901 6.57175C38.7901 6.04748 38.6427 5.6338 38.3478 5.3307C38.0611 5.02761 37.7088 4.87606 37.2911 4.87606C36.8733 4.87606 36.5169 5.02761 36.222 5.3307C35.9353 5.62561 35.792 6.03519 35.792 6.55947C35.792 7.08374 35.9353 7.50152 36.222 7.8128C36.5169 8.1159 36.8733 8.26745 37.2911 8.26745C37.7088 8.26745 38.0611 8.1159 38.3478 7.8128C38.6427 7.50971 38.7901 7.09603 38.7901 6.57175ZM30.2448 13.3741V22H28.1436V16.8269L26.2144 22H24.5188L22.5773 16.8146V22H20.4761V13.3741H22.9582L25.3789 19.3459L27.775 13.3741H30.2448ZM38.7597 15.1435L34.4591 25.2562H32.1981L33.7709 21.7665L30.9817 15.1435H33.3286L34.9137 19.4319L36.4865 15.1435H38.7597Z" fill="white"/>
</svg>
