<svg width="17" height="20" viewBox="0 0 17 20" fill="none" xmlns="http://www.w3.org/2000/svg">
<path d="M10.418 14H15.418V19M6.418 6H1.418V1M15.836 7.003C15.2753 5.61519 14.3365 4.41251 13.1264 3.53166C11.9162 2.65082 10.4832 2.12714 8.99026 2.02016C7.4973 1.91318 6.00427 2.22718 4.68088 2.92648C3.35749 3.62577 2.25683 4.68231 1.504 5.976M1 12.997C1.5608 14.3846 2.49957 15.587 3.70963 16.4676C4.91969 17.3483 6.35252 17.8718 7.84529 17.9788C9.33806 18.0858 10.8309 17.7719 12.1542 17.0728C13.4774 16.3737 14.5781 15.3174 15.331 14.024" stroke="white" stroke-width="2" stroke-linecap="round" stroke-linejoin="round"/>
</svg>
